<?xml version="1.0" encoding="UTF-8"?>
<svg version="1.1" xmlns="http://www.w3.org/2000/svg" width="512" height="512">
<path d="M0 0 C0.91296844 -0.00282738 1.82593689 -0.00565475 2.76657104 -0.00856781 C7.6196113 -0.02344012 12.47262288 -0.03273897 17.32568359 -0.03710938 C21.23235663 -0.04144593 25.13880281 -0.05516585 29.04541016 -0.078125 C63.70759421 -0.27739575 98.23673772 1.00443977 132.625 5.640625 C133.4405838 5.74706329 134.2561676 5.85350159 135.09646606 5.96316528 C173.0031709 10.91062088 203.0973063 21.3300992 231.25 48.203125 C231.89710938 48.78707031 232.54421875 49.37101562 233.2109375 49.97265625 C256.12115322 71.43345016 268.45558087 101.86782822 272.75 132.390625 C272.85227905 133.09735352 272.95455811 133.80408203 273.05993652 134.53222656 C274.93297155 147.54928075 276.28739593 160.60977257 277.5 173.703125 C277.58290283 174.59575043 277.66580566 175.48837585 277.7512207 176.40805054 C277.99055812 179.01637735 278.22346993 181.62517901 278.453125 184.234375 C278.55279572 185.34405388 278.55279572 185.34405388 278.65447998 186.47615051 C279.93292001 201.46164995 280.41723901 216.41175364 280.453125 231.4453125 C280.45997557 233.25256367 280.46687896 235.05981465 280.47383118 236.86706543 C280.49272235 242.60408694 280.49722663 248.34107668 280.5 254.078125 C280.501031 255.04891243 280.502062 256.01969986 280.50312424 257.01990509 C280.54960808 303.52527458 280.54960808 303.52527458 278.8125 326.578125 C278.7451062 327.47368103 278.6777124 328.36923706 278.60827637 329.29193115 C277.54262886 342.91049614 277.54262886 342.91049614 276.25 344.203125 C270.12643674 345.37915206 264.03346662 345.39161708 257.8137207 345.45263672 C256.1147187 345.47488815 256.1147187 345.47488815 254.38139343 345.49758911 C251.9288034 345.52941479 249.47618803 345.55933229 247.02355385 345.58755112 C243.13403101 345.63330361 239.24466982 345.6862743 235.35527039 345.7414856 C224.29891339 345.89811885 213.24250514 346.04801814 202.18579102 346.17724609 C195.41479301 346.25646675 188.64412044 346.35068656 181.87343407 346.45306778 C179.30166527 346.48930593 176.7298183 346.52039455 174.15792274 346.54610825 C170.54938768 346.58265337 166.94149783 346.63685186 163.33325195 346.69482422 C161.75938217 346.70434113 161.75938217 346.70434113 160.15371704 346.71405029 C145.92488899 346.99182237 132.85661561 350.97062432 122.35546875 360.83984375 C113.20230248 371.11380588 109.87824526 382.9587157 109.59375 396.40966797 C109.56124146 397.45176359 109.52873291 398.49385921 109.49523926 399.56753349 C109.39915438 402.77919976 109.32252558 405.99084895 109.25 409.203125 C109.20079067 411.10777473 109.15132179 413.01241778 109.1015625 414.91705322 C108.98567207 419.59965775 108.89102749 424.28244123 108.80444336 428.96567154 C108.74807472 432.00214867 108.68795197 435.03853318 108.62695312 438.07492065 C108.45456859 446.68575534 108.28845975 455.29670646 108.125 463.90771484 C108.02378727 469.22631298 107.91832719 474.54481352 107.81030273 479.86327744 C107.77036451 481.87345016 107.73209333 483.88365676 107.69555664 485.8938942 C107.64475722 488.68733217 107.58858937 491.48061549 107.53125 494.27392578 C107.51094727 495.50346481 107.51094727 495.50346481 107.49023438 496.75784302 C107.39721704 501.00131192 107.07579896 505.02309242 106.25 509.203125 C103.10471658 509.52131226 99.95868474 509.83148768 96.8125 510.140625 C95.95333984 510.22763672 95.09417969 510.31464844 94.20898438 510.40429688 C79.03211789 511.88363043 63.92309078 512.36468476 48.68359375 512.37109375 C46.83398923 512.37432381 44.98438493 512.37768903 43.13478088 512.38117981 C39.27482515 512.3871214 35.41489162 512.38902519 31.55493164 512.38842773 C27.67011811 512.388347 23.78542383 512.39521331 19.90063477 512.40893555 C-3.735366 512.49106518 -27.18499624 512.15873708 -50.75 510.203125 C-52.1821434 510.08603683 -52.1821434 510.08603683 -53.64321899 509.96658325 C-59.06215172 509.51271468 -64.46947943 508.98221128 -69.875 508.390625 C-70.65342255 508.30664459 -71.43184509 508.22266418 -72.2338562 508.13613892 C-115.24303847 503.4552836 -150.74745567 494.75100822 -182.75 464.203125 C-183.39710938 463.61917969 -184.04421875 463.03523438 -184.7109375 462.43359375 C-207.62115322 440.97279984 -219.95558087 410.53842178 -224.25 380.015625 C-224.35227905 379.30889648 -224.45455811 378.60216797 -224.55993652 377.87402344 C-226.43297155 364.85696925 -227.78739593 351.79647743 -229 338.703125 C-229.08290283 337.81049957 -229.16580566 336.91787415 -229.2512207 335.99819946 C-229.49055812 333.38987265 -229.72346993 330.78107099 -229.953125 328.171875 C-230.01957214 327.43208908 -230.08601929 326.69230316 -230.15447998 325.93009949 C-231.44742598 310.77456536 -231.92040391 295.65725996 -231.953125 280.453125 C-231.95595238 279.54015656 -231.95877975 278.62718811 -231.96169281 277.68655396 C-231.97656512 272.8335137 -231.98586397 267.98050212 -231.99023438 263.12744141 C-231.99457093 259.22076837 -232.00829085 255.31432219 -232.03125 251.40771484 C-232.23051676 216.74622483 -230.95162642 182.21549825 -226.3125 147.828125 C-226.20572937 147.01187653 -226.09895874 146.19562805 -225.98895264 145.35464478 C-221.03553698 107.5030465 -210.53243524 77.2609143 -183.75 49.203125 C-183.16605469 48.55601563 -182.58210938 47.90890625 -181.98046875 47.2421875 C-160.51967484 24.33197178 -130.08529678 11.99754413 -99.5625 7.703125 C-98.85577148 7.60084595 -98.14904297 7.49856689 -97.42089844 7.39318848 C-84.40384425 5.52015345 -71.34335243 4.16572907 -58.25 2.953125 C-57.35737457 2.87022217 -56.46474915 2.78731934 -55.54507446 2.7019043 C-52.93674765 2.46256688 -50.32794599 2.22965507 -47.71875 2 C-46.60907112 1.90032928 -46.60907112 1.90032928 -45.47697449 1.79864502 C-30.32144036 0.50569902 -15.20413496 0.03272109 0 0 Z M-137.6796875 157.43359375 C-142.13819151 163.97202188 -143.56010327 169.31342358 -142.75 177.203125 C-140.87657326 183.88541148 -136.31935522 188.2991692 -130.75 192.203125 C-124.58175848 195.09842204 -119.03374744 194.85753003 -112.6875 192.640625 C-106.83114783 190.09515886 -103.51648053 186.7555693 -100.6875 181.06640625 C-98.26921458 174.88034579 -98.03270066 169.22735436 -100.66015625 163.0703125 C-103.75937672 157.54424481 -108.57681818 152.53952704 -114.73828125 150.56640625 C-123.44264791 148.99454975 -131.65225125 150.46665833 -137.6796875 157.43359375 Z M-73.52734375 159.29296875 C-77.1574126 164.96422648 -78.41811953 169.95283039 -77.4453125 176.6796875 C-75.47449224 183.83221495 -71.06174027 188.62688533 -64.77734375 192.328125 C-59.52086385 194.59681767 -54.08797496 194.34912997 -48.47087097 194.34356689 C-47.53302633 194.34653802 -46.59518169 194.34950914 -45.62891752 194.3525703 C-42.48461762 194.36124573 -39.34035584 194.36276456 -36.19604492 194.36425781 C-33.94230569 194.36888675 -31.68856725 194.37391152 -29.43482971 194.37930298 C-23.3108173 194.39242051 -17.18681585 194.39887053 -11.06279159 194.40331364 C-7.23694635 194.40624504 -3.41110412 194.41034995 0.41473961 194.41481781 C11.01348781 194.42692418 21.6122334 194.43730739 32.21098804 194.4406929 C33.22778177 194.44102225 33.22778177 194.44102225 34.26511679 194.44135825 C35.28429759 194.44168567 35.28429759 194.44168567 36.32406789 194.4420197 C37.70082716 194.44246316 39.07758643 194.44290973 40.4543457 194.44335938 C41.13726111 194.4435808 41.82017652 194.44380223 42.52378633 194.44403037 C53.58878766 194.44797819 64.65372313 194.46543332 75.71869902 194.4887189 C87.08682568 194.51244882 98.45490819 194.52463763 109.82306403 194.52606082 C116.20272254 194.52710918 122.5822881 194.53302392 128.9619236 194.55088043 C134.96275635 194.56735023 140.96342616 194.56952182 146.96427345 194.56074142 C149.16528764 194.55997051 151.36631055 194.56432095 153.5673027 194.57419968 C156.57503586 194.58690647 159.58219076 194.58104901 162.58992004 194.57061768 C163.45812482 194.57867408 164.3263296 194.58673048 165.22084361 194.59503102 C173.81423743 194.52546428 180.2418898 192.01908234 186.55078125 186.08203125 C190.87362008 181.30206464 191.89027525 176.07705857 191.65234375 169.82421875 C190.76110297 164.01817447 188.49835724 159.17543838 184.0546875 155.27734375 C179.16007797 151.89311703 175.12817634 150.08416329 169.14410114 150.06890392 C167.92303353 150.06221716 167.92303353 150.06221716 166.67729789 150.05539531 C165.34409713 150.05567185 165.34409713 150.05567185 163.98396301 150.05595398 C163.03542771 150.05227729 162.0868924 150.0486006 161.1096136 150.0448125 C157.92308655 150.03377696 154.73659212 150.02993203 151.55004883 150.02612305 C149.26852312 150.01985832 146.98699842 150.01321152 144.70547485 150.00621033 C137.20600088 149.98516952 129.7065267 149.97480829 122.20703125 149.96484375 C119.62553077 149.96079628 117.0440304 149.95667936 114.46253014 149.95249367 C103.72485622 149.9356254 92.98718601 149.92099049 82.24950123 149.91374493 C79.46442984 149.91183513 76.67935846 149.90991478 73.89428711 149.90795898 C73.20209667 149.90747524 72.50990623 149.9069915 71.79674032 149.9064931 C60.58683343 149.89819498 49.37703333 149.87286059 38.16717307 149.84037831 C26.6510396 149.80728133 15.13497642 149.7896264 3.61879367 149.78610069 C-2.84422236 149.7837496 -9.30706955 149.77478106 -15.77004051 149.74963951 C-21.85133206 149.72636487 -27.93234352 149.72212333 -34.01366806 149.73240089 C-36.24329243 149.7328965 -38.47293056 149.72656888 -40.70251274 149.71284485 C-43.75169154 149.69512888 -46.79986484 149.70223119 -49.8490448 149.71537781 C-50.7266917 149.70440856 -51.6043386 149.69343932 -52.50858086 149.68213767 C-61.0475089 149.770728 -68.24317786 152.36026085 -73.52734375 159.29296875 Z M-137.67578125 254.43359375 C-142.14181844 260.96743813 -143.55998215 266.3146032 -142.75 274.203125 C-140.88320804 280.86174601 -136.35246458 285.36930235 -130.75 289.203125 C-125.11602282 291.70711486 -119.66397457 291.72902073 -113.75 290.203125 C-107.232423 287.21805408 -102.48758338 282.87598449 -99.75 276.203125 C-97.9157472 269.76031206 -98.7692637 264.15371899 -101.75 258.203125 C-105.19283046 252.78227083 -109.56465376 249.07413721 -115.75 247.203125 C-124.02539032 245.76510635 -132.08833031 247.9621242 -137.67578125 254.43359375 Z M-74.55859375 256.32421875 C-78.19522014 262.05935742 -78.48494268 267.57933781 -77.75 274.203125 C-75.98376312 280.37966594 -72.07662991 284.72586556 -66.75 288.203125 C-62.65741971 290.19096663 -59.31525134 290.45822305 -54.78666687 290.47055054 C-53.75354495 290.47734721 -53.75354495 290.47734721 -52.69955188 290.48428118 C-50.39818393 290.49691279 -48.09705302 290.49530564 -45.7956543 290.49365234 C-44.14289039 290.49963841 -42.49012927 290.50644413 -40.83737183 290.51400757 C-36.35172165 290.53166764 -31.8661478 290.53636297 -27.38046622 290.53763914 C-24.57642369 290.53906138 -21.77240053 290.54333238 -18.96836281 290.54863358 C-9.18145136 290.56713441 0.60540563 290.57530419 10.39233398 290.57373047 C19.50767153 290.5725293 28.6227722 290.59362668 37.73804981 290.6252178 C45.57006927 290.65139184 53.40201144 290.66209728 61.23407429 290.66081965 C65.90909254 290.66031032 70.5839003 290.66597762 75.25887489 290.68717575 C79.65763582 290.70657697 84.05598587 290.70666983 88.45476151 290.69214249 C90.0655814 290.69005557 91.67642714 290.69474836 93.28720284 290.7068634 C102.55704459 290.7720465 109.93043116 290.79356374 117.2734375 284.45703125 C117.71945312 283.89886719 118.16546875 283.34070313 118.625 282.765625 C119.08648437 282.21003906 119.54796875 281.65445313 120.0234375 281.08203125 C123.73576087 275.39531934 123.98312258 269.81050827 123.25 263.203125 C121.48376312 257.02658406 117.57662991 252.68038444 112.25 249.203125 C108.17033979 247.22409212 104.84491736 246.94807321 100.33135986 246.93569946 C99.30542162 246.92890279 99.30542162 246.92890279 98.25875735 246.92196882 C95.97354242 246.90933797 93.68856622 246.91094432 91.40332031 246.91259766 C89.76203099 246.90661149 88.12074448 246.89980574 86.47946167 246.89224243 C82.024735 246.87458203 77.57008518 246.86988697 73.11532688 246.86861086 C70.33003759 246.86718848 67.54476779 246.86291718 64.75948334 246.85761642 C55.03625754 246.83911449 45.31308656 246.83094583 35.58984375 246.83251953 C26.53700945 246.83372028 17.48441383 246.81263151 8.43163991 246.7810322 C0.65140898 246.75484598 -7.12874412 246.74415325 -14.90901875 246.74543035 C-19.55221144 246.74593939 -24.1951921 246.74028877 -28.83834076 246.71907425 C-33.20837842 246.69965283 -37.57800268 246.69959393 -41.94805527 246.71410751 C-43.54716727 246.71619203 -45.14630541 246.71151604 -46.74537277 246.6993866 C-58.05561141 246.61918839 -67.04501967 247.09814915 -74.55859375 256.32421875 Z " fill="#F98935" transform="translate(231.75,-0.203125)"/>
<path d="M0 0 C-4.55810506 7.38739543 -9.39405887 14.43439814 -14.6875 21.3125 C-15.73405762 22.67761719 -15.73405762 22.67761719 -16.80175781 24.0703125 C-22.62001036 31.60765478 -28.64451879 38.91127847 -35 46 C-35.69391846 46.77851318 -35.69391846 46.77851318 -36.40185547 47.57275391 C-47.64772341 60.13799129 -59.32633702 72.70781737 -72.625 83.1171875 C-74.85626762 84.88605427 -76.91974439 86.74538636 -79 88.6875 C-90.90961702 99.38054324 -104.58220481 108.32272169 -118 117 C-118.86882812 117.56847656 -119.73765625 118.13695312 -120.6328125 118.72265625 C-125.7268454 122 -125.7268454 122 -128 122 C-128.11482538 98.51555897 -128.03143439 75.04311296 -127.5625 51.5625 C-127.54285187 50.5342511 -127.52320374 49.5060022 -127.50296021 48.44659424 C-127.38883681 42.58317472 -127.24908792 36.72122733 -127.07794189 30.85919189 C-127.02488553 28.91289184 -126.97974175 26.9663636 -126.94158936 25.01971436 C-126.88405506 22.12563861 -126.80202976 19.23315876 -126.71484375 16.33984375 C-126.70288467 15.47081924 -126.6909256 14.60179474 -126.67860413 13.70643616 C-126.53238762 9.67702211 -126.29565454 7.48096817 -124.14282227 3.97875977 C-120.94228759 1.02327002 -118.27327953 0.86850125 -114.08789062 0.79467773 C-113.07523132 0.77473755 -112.06257202 0.75479736 -111.01922607 0.73425293 C-109.90944397 0.7175354 -108.79966187 0.70081787 -107.65625 0.68359375 C-106.48733215 0.66276733 -105.31841431 0.64194092 -104.11407471 0.6204834 C-100.24278673 0.55386941 -96.37143007 0.49522645 -92.5 0.4375 C-90.52296082 0.40573166 -90.52296082 0.40573166 -88.50598145 0.37332153 C-59.00399843 -0.1007288 -29.50524883 -0.10813262 0 0 Z " fill="#FFA447" transform="translate(504,382)"/>
</svg>
